<mxfile host="app.diagrams.net" modified="2023-01-19T15:21:58.315Z" agent="5.0 (Windows NT 10.0; Win64; x64) AppleWebKit/537.36 (KHTML, like Gecko) Chrome/108.0.0.0 Safari/537.36" etag="mbvK-f2gNei8c4Jh1gJr" version="20.8.7" type="github" pages="2">
  <diagram id="9ZYdtAuchSPfpJzSGWRA" name="Ejercicio 1">
    <mxGraphModel dx="1434" dy="764" grid="1" gridSize="10" guides="1" tooltips="1" connect="1" arrows="1" fold="1" page="1" pageScale="1" pageWidth="827" pageHeight="1169" math="0" shadow="0">
      <root>
        <mxCell id="0" />
        <mxCell id="1" parent="0" />
        <mxCell id="OKUfK8-MCF0j2W9icXx6-62" value="" style="endArrow=classic;html=1;rounded=0;entryX=-0.008;entryY=0.446;entryDx=0;entryDy=0;entryPerimeter=0;exitX=1;exitY=0;exitDx=0;exitDy=0;" parent="1" source="OKUfK8-MCF0j2W9icXx6-23" target="OKUfK8-MCF0j2W9icXx6-41" edge="1">
          <mxGeometry width="50" height="50" relative="1" as="geometry">
            <mxPoint x="100" y="260" as="sourcePoint" />
            <mxPoint x="410" y="360" as="targetPoint" />
          </mxGeometry>
        </mxCell>
        <mxCell id="OKUfK8-MCF0j2W9icXx6-23" value="" style="shape=lineEllipse;perimeter=ellipsePerimeter;whiteSpace=wrap;html=1;backgroundOutline=1;" parent="1" vertex="1">
          <mxGeometry x="50" y="260" width="80" height="80" as="geometry" />
        </mxCell>
        <mxCell id="OKUfK8-MCF0j2W9icXx6-24" value="" style="endArrow=none;html=1;rounded=0;exitX=0.5;exitY=1;exitDx=0;exitDy=0;" parent="1" source="OKUfK8-MCF0j2W9icXx6-23" edge="1">
          <mxGeometry width="50" height="50" relative="1" as="geometry">
            <mxPoint x="280" y="290" as="sourcePoint" />
            <mxPoint x="90" y="300" as="targetPoint" />
          </mxGeometry>
        </mxCell>
        <mxCell id="OKUfK8-MCF0j2W9icXx6-25" value="0" style="text;html=1;align=center;verticalAlign=middle;resizable=0;points=[];autosize=1;strokeColor=none;fillColor=none;" parent="1" vertex="1">
          <mxGeometry x="60" y="300" width="30" height="30" as="geometry" />
        </mxCell>
        <mxCell id="OKUfK8-MCF0j2W9icXx6-26" value="0" style="text;html=1;align=center;verticalAlign=middle;resizable=0;points=[];autosize=1;strokeColor=none;fillColor=none;" parent="1" vertex="1">
          <mxGeometry x="90" y="300" width="30" height="30" as="geometry" />
        </mxCell>
        <mxCell id="OKUfK8-MCF0j2W9icXx6-27" value="0" style="text;html=1;align=center;verticalAlign=middle;resizable=0;points=[];autosize=1;strokeColor=none;fillColor=none;" parent="1" vertex="1">
          <mxGeometry x="75" y="270" width="30" height="30" as="geometry" />
        </mxCell>
        <mxCell id="OKUfK8-MCF0j2W9icXx6-64" value="" style="group" parent="1" vertex="1" connectable="0">
          <mxGeometry x="440" y="420" width="80" height="80" as="geometry" />
        </mxCell>
        <mxCell id="OKUfK8-MCF0j2W9icXx6-35" value="" style="shape=lineEllipse;perimeter=ellipsePerimeter;whiteSpace=wrap;html=1;backgroundOutline=1;" parent="OKUfK8-MCF0j2W9icXx6-64" vertex="1">
          <mxGeometry width="80" height="80" as="geometry" />
        </mxCell>
        <mxCell id="OKUfK8-MCF0j2W9icXx6-36" value="" style="endArrow=none;html=1;rounded=0;exitX=0.5;exitY=1;exitDx=0;exitDy=0;" parent="OKUfK8-MCF0j2W9icXx6-64" source="OKUfK8-MCF0j2W9icXx6-35" edge="1">
          <mxGeometry width="50" height="50" relative="1" as="geometry">
            <mxPoint x="230" y="30" as="sourcePoint" />
            <mxPoint x="40" y="40" as="targetPoint" />
          </mxGeometry>
        </mxCell>
        <mxCell id="OKUfK8-MCF0j2W9icXx6-37" value="5" style="text;html=1;align=center;verticalAlign=middle;resizable=0;points=[];autosize=1;strokeColor=none;fillColor=none;" parent="OKUfK8-MCF0j2W9icXx6-64" vertex="1">
          <mxGeometry x="10" y="40" width="30" height="30" as="geometry" />
        </mxCell>
        <mxCell id="OKUfK8-MCF0j2W9icXx6-38" value="5" style="text;html=1;align=center;verticalAlign=middle;resizable=0;points=[];autosize=1;strokeColor=none;fillColor=none;" parent="OKUfK8-MCF0j2W9icXx6-64" vertex="1">
          <mxGeometry x="40" y="40" width="30" height="30" as="geometry" />
        </mxCell>
        <mxCell id="OKUfK8-MCF0j2W9icXx6-39" value="4" style="text;html=1;align=center;verticalAlign=middle;resizable=0;points=[];autosize=1;strokeColor=none;fillColor=none;" parent="OKUfK8-MCF0j2W9icXx6-64" vertex="1">
          <mxGeometry x="25" y="10" width="30" height="30" as="geometry" />
        </mxCell>
        <mxCell id="OKUfK8-MCF0j2W9icXx6-65" value="" style="group" parent="1" vertex="1" connectable="0">
          <mxGeometry x="240" y="100" width="80" height="80" as="geometry" />
        </mxCell>
        <mxCell id="OKUfK8-MCF0j2W9icXx6-41" value="" style="shape=lineEllipse;perimeter=ellipsePerimeter;whiteSpace=wrap;html=1;backgroundOutline=1;" parent="OKUfK8-MCF0j2W9icXx6-65" vertex="1">
          <mxGeometry width="80" height="80" as="geometry" />
        </mxCell>
        <mxCell id="OKUfK8-MCF0j2W9icXx6-42" value="" style="endArrow=none;html=1;rounded=0;exitX=0.5;exitY=1;exitDx=0;exitDy=0;" parent="OKUfK8-MCF0j2W9icXx6-65" source="OKUfK8-MCF0j2W9icXx6-41" edge="1">
          <mxGeometry width="50" height="50" relative="1" as="geometry">
            <mxPoint x="230" y="30" as="sourcePoint" />
            <mxPoint x="40" y="40" as="targetPoint" />
          </mxGeometry>
        </mxCell>
        <mxCell id="OKUfK8-MCF0j2W9icXx6-43" value="2" style="text;html=1;align=center;verticalAlign=middle;resizable=0;points=[];autosize=1;strokeColor=none;fillColor=none;" parent="OKUfK8-MCF0j2W9icXx6-65" vertex="1">
          <mxGeometry x="10" y="40" width="30" height="30" as="geometry" />
        </mxCell>
        <mxCell id="OKUfK8-MCF0j2W9icXx6-44" value="3" style="text;html=1;align=center;verticalAlign=middle;resizable=0;points=[];autosize=1;strokeColor=none;fillColor=none;" parent="OKUfK8-MCF0j2W9icXx6-65" vertex="1">
          <mxGeometry x="40" y="40" width="30" height="30" as="geometry" />
        </mxCell>
        <mxCell id="OKUfK8-MCF0j2W9icXx6-45" value="1" style="text;html=1;align=center;verticalAlign=middle;resizable=0;points=[];autosize=1;strokeColor=none;fillColor=none;" parent="OKUfK8-MCF0j2W9icXx6-65" vertex="1">
          <mxGeometry x="25" y="10" width="30" height="30" as="geometry" />
        </mxCell>
        <mxCell id="OKUfK8-MCF0j2W9icXx6-66" value="" style="endArrow=classic;html=1;rounded=0;exitX=1;exitY=1;exitDx=0;exitDy=0;entryX=0;entryY=0.5;entryDx=0;entryDy=0;" parent="1" source="OKUfK8-MCF0j2W9icXx6-23" target="OKUfK8-MCF0j2W9icXx6-29" edge="1">
          <mxGeometry width="50" height="50" relative="1" as="geometry">
            <mxPoint x="260" y="450" as="sourcePoint" />
            <mxPoint x="310" y="400" as="targetPoint" />
          </mxGeometry>
        </mxCell>
        <mxCell id="OKUfK8-MCF0j2W9icXx6-70" value="" style="endArrow=classic;html=1;rounded=0;fontFamily=Helvetica;fontSize=12;fontColor=default;exitX=1;exitY=0.5;exitDx=0;exitDy=0;entryX=0;entryY=0.5;entryDx=0;entryDy=0;" parent="1" source="OKUfK8-MCF0j2W9icXx6-41" target="OKUfK8-MCF0j2W9icXx6-53" edge="1">
          <mxGeometry width="50" height="50" relative="1" as="geometry">
            <mxPoint x="530" y="120" as="sourcePoint" />
            <mxPoint x="450" y="140" as="targetPoint" />
          </mxGeometry>
        </mxCell>
        <mxCell id="OKUfK8-MCF0j2W9icXx6-79" value="" style="group" parent="1" vertex="1" connectable="0">
          <mxGeometry x="410" y="100" width="80" height="80" as="geometry" />
        </mxCell>
        <mxCell id="OKUfK8-MCF0j2W9icXx6-53" value="" style="shape=lineEllipse;perimeter=ellipsePerimeter;whiteSpace=wrap;html=1;backgroundOutline=1;" parent="OKUfK8-MCF0j2W9icXx6-79" vertex="1">
          <mxGeometry width="80" height="80" as="geometry" />
        </mxCell>
        <mxCell id="OKUfK8-MCF0j2W9icXx6-54" value="" style="endArrow=none;html=1;rounded=0;exitX=0.5;exitY=1;exitDx=0;exitDy=0;" parent="OKUfK8-MCF0j2W9icXx6-79" source="OKUfK8-MCF0j2W9icXx6-53" edge="1">
          <mxGeometry width="50" height="50" relative="1" as="geometry">
            <mxPoint x="230" y="30" as="sourcePoint" />
            <mxPoint x="40" y="40" as="targetPoint" />
          </mxGeometry>
        </mxCell>
        <mxCell id="OKUfK8-MCF0j2W9icXx6-55" value="10" style="text;html=1;align=center;verticalAlign=middle;resizable=0;points=[];autosize=1;strokeColor=none;fillColor=none;" parent="OKUfK8-MCF0j2W9icXx6-79" vertex="1">
          <mxGeometry x="5" y="40" width="40" height="30" as="geometry" />
        </mxCell>
        <mxCell id="OKUfK8-MCF0j2W9icXx6-56" value="10" style="text;html=1;align=center;verticalAlign=middle;resizable=0;points=[];autosize=1;strokeColor=none;fillColor=none;" parent="OKUfK8-MCF0j2W9icXx6-79" vertex="1">
          <mxGeometry x="35" y="40" width="40" height="30" as="geometry" />
        </mxCell>
        <mxCell id="OKUfK8-MCF0j2W9icXx6-57" value="3" style="text;html=1;align=center;verticalAlign=middle;resizable=0;points=[];autosize=1;strokeColor=none;fillColor=none;" parent="OKUfK8-MCF0j2W9icXx6-79" vertex="1">
          <mxGeometry x="25" y="10" width="30" height="30" as="geometry" />
        </mxCell>
        <mxCell id="OKUfK8-MCF0j2W9icXx6-80" value="" style="endArrow=classic;html=1;rounded=0;fontFamily=Helvetica;fontSize=12;fontColor=default;exitX=1;exitY=0.5;exitDx=0;exitDy=0;strokeColor=#300200;entryX=0;entryY=0.5;entryDx=0;entryDy=0;" parent="1" source="OKUfK8-MCF0j2W9icXx6-29" target="OKUfK8-MCF0j2W9icXx6-35" edge="1">
          <mxGeometry width="50" height="50" relative="1" as="geometry">
            <mxPoint x="410" y="530" as="sourcePoint" />
            <mxPoint x="480" y="460" as="targetPoint" />
          </mxGeometry>
        </mxCell>
        <mxCell id="OKUfK8-MCF0j2W9icXx6-81" value="" style="group" parent="1" vertex="1" connectable="0">
          <mxGeometry x="240" y="420" width="80" height="80" as="geometry" />
        </mxCell>
        <mxCell id="OKUfK8-MCF0j2W9icXx6-29" value="" style="shape=lineEllipse;perimeter=ellipsePerimeter;whiteSpace=wrap;html=1;backgroundOutline=1;container=0;" parent="OKUfK8-MCF0j2W9icXx6-81" vertex="1">
          <mxGeometry width="80" height="80" as="geometry" />
        </mxCell>
        <mxCell id="OKUfK8-MCF0j2W9icXx6-30" value="" style="endArrow=none;html=1;rounded=0;exitX=0.5;exitY=1;exitDx=0;exitDy=0;" parent="OKUfK8-MCF0j2W9icXx6-81" source="OKUfK8-MCF0j2W9icXx6-29" edge="1">
          <mxGeometry width="50" height="50" relative="1" as="geometry">
            <mxPoint x="230" y="30" as="sourcePoint" />
            <mxPoint x="40" y="40" as="targetPoint" />
          </mxGeometry>
        </mxCell>
        <mxCell id="OKUfK8-MCF0j2W9icXx6-31" value="7" style="text;html=1;align=center;verticalAlign=middle;resizable=0;points=[];autosize=1;strokeColor=none;fillColor=none;container=0;" parent="OKUfK8-MCF0j2W9icXx6-81" vertex="1">
          <mxGeometry x="10" y="40" width="30" height="30" as="geometry" />
        </mxCell>
        <mxCell id="OKUfK8-MCF0j2W9icXx6-32" value="7" style="text;html=1;align=center;verticalAlign=middle;resizable=0;points=[];autosize=1;strokeColor=none;fillColor=none;container=0;" parent="OKUfK8-MCF0j2W9icXx6-81" vertex="1">
          <mxGeometry x="40" y="40" width="30" height="30" as="geometry" />
        </mxCell>
        <mxCell id="OKUfK8-MCF0j2W9icXx6-33" value="2" style="text;html=1;align=center;verticalAlign=middle;resizable=0;points=[];autosize=1;strokeColor=none;fillColor=none;container=0;" parent="OKUfK8-MCF0j2W9icXx6-81" vertex="1">
          <mxGeometry x="25" y="10" width="30" height="30" as="geometry" />
        </mxCell>
        <mxCell id="OKUfK8-MCF0j2W9icXx6-90" value="B - 5" style="text;html=1;align=center;verticalAlign=middle;resizable=0;points=[];autosize=1;strokeColor=none;fillColor=none;fontSize=12;fontFamily=Helvetica;fontColor=default;rotation=45;" parent="1" vertex="1">
          <mxGeometry x="160" y="360" width="50" height="30" as="geometry" />
        </mxCell>
        <mxCell id="OKUfK8-MCF0j2W9icXx6-91" value="A - 4" style="text;html=1;align=center;verticalAlign=middle;resizable=0;points=[];autosize=1;strokeColor=none;fillColor=none;fontSize=12;fontFamily=Helvetica;fontColor=default;pointerEvents=0;rotation=-45;" parent="1" vertex="1">
          <mxGeometry x="140" y="180" width="50" height="30" as="geometry" />
        </mxCell>
        <mxCell id="OKUfK8-MCF0j2W9icXx6-92" value="D - 2" style="text;html=1;align=center;verticalAlign=middle;resizable=0;points=[];autosize=1;strokeColor=none;fillColor=none;fontSize=12;fontFamily=Helvetica;fontColor=default;" parent="1" vertex="1">
          <mxGeometry x="340" y="430" width="50" height="30" as="geometry" />
        </mxCell>
        <mxCell id="OKUfK8-MCF0j2W9icXx6-93" value="C - 2" style="text;html=1;align=center;verticalAlign=middle;resizable=0;points=[];autosize=1;strokeColor=none;fillColor=none;fontSize=12;fontFamily=Helvetica;fontColor=default;" parent="1" vertex="1">
          <mxGeometry x="330" y="110" width="50" height="30" as="geometry" />
        </mxCell>
        <mxCell id="OKUfK8-MCF0j2W9icXx6-97" value="G - 7" style="text;html=1;align=center;verticalAlign=middle;resizable=0;points=[];autosize=1;strokeColor=none;fillColor=none;fontSize=12;fontFamily=Helvetica;fontColor=default;rotation=0;" parent="1" vertex="1">
          <mxGeometry x="510" y="100" width="50" height="30" as="geometry" />
        </mxCell>
        <mxCell id="OKUfK8-MCF0j2W9icXx6-98" value="F - 3" style="text;html=1;align=center;verticalAlign=middle;resizable=0;points=[];autosize=1;strokeColor=none;fillColor=none;fontSize=12;fontFamily=Helvetica;fontColor=default;rotation=0;" parent="1" vertex="1">
          <mxGeometry x="510" y="215" width="50" height="30" as="geometry" />
        </mxCell>
        <mxCell id="rUqTioP0xyPwp2uxLFu2-2" value="" style="group" parent="1" vertex="1" connectable="0">
          <mxGeometry x="600" y="50" width="80" height="80" as="geometry" />
        </mxCell>
        <mxCell id="rUqTioP0xyPwp2uxLFu2-3" value="" style="shape=lineEllipse;perimeter=ellipsePerimeter;whiteSpace=wrap;html=1;backgroundOutline=1;" parent="rUqTioP0xyPwp2uxLFu2-2" vertex="1">
          <mxGeometry width="80" height="80" as="geometry" />
        </mxCell>
        <mxCell id="rUqTioP0xyPwp2uxLFu2-4" value="" style="endArrow=none;html=1;rounded=0;exitX=0.5;exitY=1;exitDx=0;exitDy=0;" parent="rUqTioP0xyPwp2uxLFu2-2" source="rUqTioP0xyPwp2uxLFu2-3" edge="1">
          <mxGeometry width="50" height="50" relative="1" as="geometry">
            <mxPoint x="230" y="30" as="sourcePoint" />
            <mxPoint x="40" y="40" as="targetPoint" />
          </mxGeometry>
        </mxCell>
        <mxCell id="rUqTioP0xyPwp2uxLFu2-5" value="10" style="text;html=1;align=center;verticalAlign=middle;resizable=0;points=[];autosize=1;strokeColor=none;fillColor=none;" parent="rUqTioP0xyPwp2uxLFu2-2" vertex="1">
          <mxGeometry x="5" y="40" width="40" height="30" as="geometry" />
        </mxCell>
        <mxCell id="rUqTioP0xyPwp2uxLFu2-6" value="10" style="text;html=1;align=center;verticalAlign=middle;resizable=0;points=[];autosize=1;strokeColor=none;fillColor=none;" parent="rUqTioP0xyPwp2uxLFu2-2" vertex="1">
          <mxGeometry x="35" y="40" width="40" height="30" as="geometry" />
        </mxCell>
        <mxCell id="rUqTioP0xyPwp2uxLFu2-7" value="5" style="text;html=1;align=center;verticalAlign=middle;resizable=0;points=[];autosize=1;strokeColor=none;fillColor=none;" parent="rUqTioP0xyPwp2uxLFu2-2" vertex="1">
          <mxGeometry x="25" y="10" width="30" height="30" as="geometry" />
        </mxCell>
        <mxCell id="rUqTioP0xyPwp2uxLFu2-8" value="" style="group" parent="1" vertex="1" connectable="0">
          <mxGeometry x="640" y="245" width="80" height="80" as="geometry" />
        </mxCell>
        <mxCell id="rUqTioP0xyPwp2uxLFu2-9" value="" style="shape=lineEllipse;perimeter=ellipsePerimeter;whiteSpace=wrap;html=1;backgroundOutline=1;" parent="rUqTioP0xyPwp2uxLFu2-8" vertex="1">
          <mxGeometry width="80" height="80" as="geometry" />
        </mxCell>
        <mxCell id="rUqTioP0xyPwp2uxLFu2-10" value="" style="endArrow=none;html=1;rounded=0;exitX=0.5;exitY=1;exitDx=0;exitDy=0;" parent="rUqTioP0xyPwp2uxLFu2-8" source="rUqTioP0xyPwp2uxLFu2-9" edge="1">
          <mxGeometry width="50" height="50" relative="1" as="geometry">
            <mxPoint x="230" y="30" as="sourcePoint" />
            <mxPoint x="40" y="40" as="targetPoint" />
          </mxGeometry>
        </mxCell>
        <mxCell id="rUqTioP0xyPwp2uxLFu2-11" value="10" style="text;html=1;align=center;verticalAlign=middle;resizable=0;points=[];autosize=1;strokeColor=none;fillColor=none;" parent="rUqTioP0xyPwp2uxLFu2-8" vertex="1">
          <mxGeometry x="5" y="40" width="40" height="30" as="geometry" />
        </mxCell>
        <mxCell id="rUqTioP0xyPwp2uxLFu2-12" value="10" style="text;html=1;align=center;verticalAlign=middle;resizable=0;points=[];autosize=1;strokeColor=none;fillColor=none;" parent="rUqTioP0xyPwp2uxLFu2-8" vertex="1">
          <mxGeometry x="35" y="40" width="40" height="30" as="geometry" />
        </mxCell>
        <mxCell id="rUqTioP0xyPwp2uxLFu2-13" value="6" style="text;html=1;align=center;verticalAlign=middle;resizable=0;points=[];autosize=1;strokeColor=none;fillColor=none;" parent="rUqTioP0xyPwp2uxLFu2-8" vertex="1">
          <mxGeometry x="25" y="10" width="30" height="30" as="geometry" />
        </mxCell>
        <mxCell id="rUqTioP0xyPwp2uxLFu2-14" value="" style="endArrow=classic;html=1;rounded=0;fontFamily=Helvetica;fontSize=12;fontColor=default;exitX=1;exitY=0;exitDx=0;exitDy=0;entryX=0;entryY=0.5;entryDx=0;entryDy=0;" parent="1" source="OKUfK8-MCF0j2W9icXx6-53" target="rUqTioP0xyPwp2uxLFu2-3" edge="1">
          <mxGeometry width="50" height="50" relative="1" as="geometry">
            <mxPoint x="330" y="150" as="sourcePoint" />
            <mxPoint x="420.0000000000041" y="150" as="targetPoint" />
            <Array as="points">
              <mxPoint x="520" y="90" />
            </Array>
          </mxGeometry>
        </mxCell>
        <mxCell id="rUqTioP0xyPwp2uxLFu2-15" value="" style="endArrow=classic;html=1;rounded=0;fontFamily=Helvetica;fontSize=12;fontColor=default;exitX=1;exitY=1;exitDx=0;exitDy=0;entryX=0.056;entryY=0.318;entryDx=0;entryDy=0;entryPerimeter=0;" parent="1" source="OKUfK8-MCF0j2W9icXx6-53" target="rUqTioP0xyPwp2uxLFu2-9" edge="1">
          <mxGeometry width="50" height="50" relative="1" as="geometry">
            <mxPoint x="340" y="160" as="sourcePoint" />
            <mxPoint x="570" y="210" as="targetPoint" />
          </mxGeometry>
        </mxCell>
        <mxCell id="rUqTioP0xyPwp2uxLFu2-17" value="" style="group" parent="1" vertex="1" connectable="0">
          <mxGeometry x="750" y="50" width="80" height="80" as="geometry" />
        </mxCell>
        <mxCell id="rUqTioP0xyPwp2uxLFu2-18" value="" style="shape=lineEllipse;perimeter=ellipsePerimeter;whiteSpace=wrap;html=1;backgroundOutline=1;" parent="rUqTioP0xyPwp2uxLFu2-17" vertex="1">
          <mxGeometry width="80" height="80" as="geometry" />
        </mxCell>
        <mxCell id="rUqTioP0xyPwp2uxLFu2-19" value="" style="endArrow=none;html=1;rounded=0;exitX=0.5;exitY=1;exitDx=0;exitDy=0;" parent="rUqTioP0xyPwp2uxLFu2-17" source="rUqTioP0xyPwp2uxLFu2-18" edge="1">
          <mxGeometry width="50" height="50" relative="1" as="geometry">
            <mxPoint x="230" y="30" as="sourcePoint" />
            <mxPoint x="40" y="40" as="targetPoint" />
          </mxGeometry>
        </mxCell>
        <mxCell id="rUqTioP0xyPwp2uxLFu2-20" value="10" style="text;html=1;align=center;verticalAlign=middle;resizable=0;points=[];autosize=1;strokeColor=none;fillColor=none;" parent="rUqTioP0xyPwp2uxLFu2-17" vertex="1">
          <mxGeometry x="5" y="40" width="40" height="30" as="geometry" />
        </mxCell>
        <mxCell id="rUqTioP0xyPwp2uxLFu2-21" value="10" style="text;html=1;align=center;verticalAlign=middle;resizable=0;points=[];autosize=1;strokeColor=none;fillColor=none;" parent="rUqTioP0xyPwp2uxLFu2-17" vertex="1">
          <mxGeometry x="35" y="40" width="40" height="30" as="geometry" />
        </mxCell>
        <mxCell id="rUqTioP0xyPwp2uxLFu2-22" value="7" style="text;html=1;align=center;verticalAlign=middle;resizable=0;points=[];autosize=1;strokeColor=none;fillColor=none;" parent="rUqTioP0xyPwp2uxLFu2-17" vertex="1">
          <mxGeometry x="25" y="10" width="30" height="30" as="geometry" />
        </mxCell>
        <mxCell id="rUqTioP0xyPwp2uxLFu2-25" value="E - 2" style="text;html=1;align=center;verticalAlign=middle;resizable=0;points=[];autosize=1;strokeColor=none;fillColor=none;fontSize=12;fontFamily=Helvetica;fontColor=default;" parent="1" vertex="1">
          <mxGeometry x="540" y="360" width="50" height="30" as="geometry" />
        </mxCell>
        <mxCell id="rUqTioP0xyPwp2uxLFu2-26" value="" style="endArrow=classic;html=1;rounded=0;fontFamily=Helvetica;fontSize=12;fontColor=default;exitX=1;exitY=0.5;exitDx=0;exitDy=0;strokeColor=#000000;entryX=0;entryY=1;entryDx=0;entryDy=0;" parent="1" source="OKUfK8-MCF0j2W9icXx6-35" target="rUqTioP0xyPwp2uxLFu2-9" edge="1">
          <mxGeometry width="50" height="50" relative="1" as="geometry">
            <mxPoint x="330" y="469.9999999999999" as="sourcePoint" />
            <mxPoint x="449.9999999999998" y="469.9999999999999" as="targetPoint" />
          </mxGeometry>
        </mxCell>
        <mxCell id="rUqTioP0xyPwp2uxLFu2-27" style="edgeStyle=orthogonalEdgeStyle;rounded=0;orthogonalLoop=1;jettySize=auto;html=1;exitX=1;exitY=0.5;exitDx=0;exitDy=0;strokeColor=#300200;" parent="1" source="rUqTioP0xyPwp2uxLFu2-3" edge="1">
          <mxGeometry relative="1" as="geometry">
            <mxPoint x="749.9999999999998" y="90.24137931034488" as="targetPoint" />
          </mxGeometry>
        </mxCell>
        <mxCell id="rUqTioP0xyPwp2uxLFu2-28" value="I - 7" style="text;html=1;align=center;verticalAlign=middle;resizable=0;points=[];autosize=1;strokeColor=none;fillColor=none;fontSize=12;fontFamily=Helvetica;fontColor=default;rotation=0;" parent="1" vertex="1">
          <mxGeometry x="685" y="60" width="40" height="30" as="geometry" />
        </mxCell>
        <mxCell id="rUqTioP0xyPwp2uxLFu2-29" value="" style="group" parent="1" vertex="1" connectable="0">
          <mxGeometry x="890" y="230" width="80" height="80" as="geometry" />
        </mxCell>
        <mxCell id="rUqTioP0xyPwp2uxLFu2-30" value="" style="shape=lineEllipse;perimeter=ellipsePerimeter;whiteSpace=wrap;html=1;backgroundOutline=1;" parent="rUqTioP0xyPwp2uxLFu2-29" vertex="1">
          <mxGeometry width="80" height="80" as="geometry" />
        </mxCell>
        <mxCell id="rUqTioP0xyPwp2uxLFu2-31" value="" style="endArrow=none;html=1;rounded=0;exitX=0.5;exitY=1;exitDx=0;exitDy=0;" parent="rUqTioP0xyPwp2uxLFu2-29" source="rUqTioP0xyPwp2uxLFu2-30" edge="1">
          <mxGeometry width="50" height="50" relative="1" as="geometry">
            <mxPoint x="230" y="30" as="sourcePoint" />
            <mxPoint x="40" y="40" as="targetPoint" />
          </mxGeometry>
        </mxCell>
        <mxCell id="rUqTioP0xyPwp2uxLFu2-32" value="10" style="text;html=1;align=center;verticalAlign=middle;resizable=0;points=[];autosize=1;strokeColor=none;fillColor=none;" parent="rUqTioP0xyPwp2uxLFu2-29" vertex="1">
          <mxGeometry x="5" y="40" width="40" height="30" as="geometry" />
        </mxCell>
        <mxCell id="rUqTioP0xyPwp2uxLFu2-33" value="10" style="text;html=1;align=center;verticalAlign=middle;resizable=0;points=[];autosize=1;strokeColor=none;fillColor=none;" parent="rUqTioP0xyPwp2uxLFu2-29" vertex="1">
          <mxGeometry x="35" y="40" width="40" height="30" as="geometry" />
        </mxCell>
        <mxCell id="rUqTioP0xyPwp2uxLFu2-34" value="8" style="text;html=1;align=center;verticalAlign=middle;resizable=0;points=[];autosize=1;strokeColor=none;fillColor=none;" parent="rUqTioP0xyPwp2uxLFu2-29" vertex="1">
          <mxGeometry x="25" y="10" width="30" height="30" as="geometry" />
        </mxCell>
        <mxCell id="rUqTioP0xyPwp2uxLFu2-35" style="edgeStyle=orthogonalEdgeStyle;rounded=0;orthogonalLoop=1;jettySize=auto;html=1;exitX=1;exitY=0.5;exitDx=0;exitDy=0;strokeColor=#300200;entryX=0.063;entryY=0.738;entryDx=0;entryDy=0;entryPerimeter=0;" parent="1" source="rUqTioP0xyPwp2uxLFu2-9" target="rUqTioP0xyPwp2uxLFu2-30" edge="1">
          <mxGeometry relative="1" as="geometry">
            <mxPoint x="880" y="280" as="targetPoint" />
            <Array as="points">
              <mxPoint x="895" y="285" />
            </Array>
          </mxGeometry>
        </mxCell>
        <mxCell id="rUqTioP0xyPwp2uxLFu2-36" value="" style="endArrow=classic;html=1;rounded=0;fontFamily=Helvetica;fontSize=12;fontColor=default;exitX=1;exitY=0.5;exitDx=0;exitDy=0;entryX=0;entryY=0.5;entryDx=0;entryDy=0;" parent="1" source="rUqTioP0xyPwp2uxLFu2-18" target="rUqTioP0xyPwp2uxLFu2-30" edge="1">
          <mxGeometry width="50" height="50" relative="1" as="geometry">
            <mxPoint x="827.0042712474562" y="100.0042712474561" as="sourcePoint" />
            <mxPoint x="993.2" y="202.15999999999983" as="targetPoint" />
          </mxGeometry>
        </mxCell>
        <mxCell id="FV_6rNnxyfahQLandJu5-1" value="H - 7" style="text;html=1;align=center;verticalAlign=middle;resizable=0;points=[];autosize=1;strokeColor=none;fillColor=none;fontSize=12;fontFamily=Helvetica;fontColor=default;rotation=0;" parent="1" vertex="1">
          <mxGeometry x="760" y="255" width="50" height="30" as="geometry" />
        </mxCell>
      </root>
    </mxGraphModel>
  </diagram>
  <diagram id="qmkaxHUMP2mf6btVXqdX" name="Ejercicio 2">
    <mxGraphModel dx="1195" dy="637" grid="1" gridSize="10" guides="1" tooltips="1" connect="1" arrows="1" fold="1" page="1" pageScale="1" pageWidth="827" pageHeight="1169" math="0" shadow="0">
      <root>
        <mxCell id="0" />
        <mxCell id="1" parent="0" />
        <mxCell id="u49de2mhDJVOpByhQnjG-2" value="" style="shape=lineEllipse;perimeter=ellipsePerimeter;whiteSpace=wrap;html=1;backgroundOutline=1;pointerEvents=0;fontFamily=Helvetica;fontSize=12;fontColor=default;fillColor=none;gradientColor=none;container=0;" parent="1" vertex="1">
          <mxGeometry x="80" y="350" width="80" height="80" as="geometry" />
        </mxCell>
        <mxCell id="u49de2mhDJVOpByhQnjG-3" value="" style="endArrow=none;html=1;rounded=0;exitX=0.5;exitY=1;exitDx=0;exitDy=0;strokeColor=#0A0000;fontFamily=Helvetica;fontSize=12;fontColor=default;" parent="1" source="u49de2mhDJVOpByhQnjG-2" edge="1">
          <mxGeometry width="50" height="50" relative="1" as="geometry">
            <mxPoint x="310" y="380" as="sourcePoint" />
            <mxPoint x="120" y="390" as="targetPoint" />
          </mxGeometry>
        </mxCell>
        <mxCell id="u49de2mhDJVOpByhQnjG-4" value="0" style="text;html=1;align=center;verticalAlign=middle;resizable=0;points=[];autosize=1;strokeColor=none;fillColor=none;pointerEvents=0;fontFamily=Helvetica;fontSize=12;fontColor=default;container=0;" parent="1" vertex="1">
          <mxGeometry x="90" y="390" width="30" height="30" as="geometry" />
        </mxCell>
        <mxCell id="u49de2mhDJVOpByhQnjG-5" value="0" style="text;html=1;align=center;verticalAlign=middle;resizable=0;points=[];autosize=1;strokeColor=none;fillColor=none;pointerEvents=0;fontFamily=Helvetica;fontSize=12;fontColor=default;container=0;" parent="1" vertex="1">
          <mxGeometry x="120" y="390" width="30" height="30" as="geometry" />
        </mxCell>
        <mxCell id="u49de2mhDJVOpByhQnjG-6" value="0" style="text;html=1;align=center;verticalAlign=middle;resizable=0;points=[];autosize=1;strokeColor=none;fillColor=none;pointerEvents=0;fontFamily=Helvetica;fontSize=12;fontColor=default;container=0;" parent="1" vertex="1">
          <mxGeometry x="105" y="360" width="30" height="30" as="geometry" />
        </mxCell>
        <mxCell id="TAxmi7qTr_LB-ie0J1Op-2" value="" style="endArrow=classic;html=1;rounded=0;exitX=1;exitY=0;exitDx=0;exitDy=0;entryX=0;entryY=0.5;entryDx=0;entryDy=0;" parent="1" source="u49de2mhDJVOpByhQnjG-2" target="8UOTILgK4hzGg4oHCATh-5" edge="1">
          <mxGeometry width="50" height="50" relative="1" as="geometry">
            <mxPoint x="200" y="350" as="sourcePoint" />
            <mxPoint x="250" y="290" as="targetPoint" />
          </mxGeometry>
        </mxCell>
        <mxCell id="TAxmi7qTr_LB-ie0J1Op-3" value="A - 3" style="text;html=1;align=center;verticalAlign=middle;resizable=0;points=[];autosize=1;strokeColor=none;fillColor=none;container=0;rotation=-45;" parent="1" vertex="1">
          <mxGeometry x="160" y="300" width="50" height="30" as="geometry" />
        </mxCell>
        <mxCell id="8UOTILgK4hzGg4oHCATh-2" value="" style="endArrow=classic;html=1;rounded=0;strokeColor=#120000;fontFamily=Helvetica;fontSize=12;fontColor=default;exitX=1;exitY=1;exitDx=0;exitDy=0;entryX=0;entryY=0.5;entryDx=0;entryDy=0;" parent="1" source="u49de2mhDJVOpByhQnjG-2" target="8UOTILgK4hzGg4oHCATh-11" edge="1">
          <mxGeometry width="50" height="50" relative="1" as="geometry">
            <mxPoint x="370" y="440" as="sourcePoint" />
            <mxPoint x="230" y="490" as="targetPoint" />
          </mxGeometry>
        </mxCell>
        <mxCell id="8UOTILgK4hzGg4oHCATh-3" value="B - 4" style="text;html=1;align=center;verticalAlign=middle;resizable=0;points=[];autosize=1;strokeColor=none;fillColor=none;fontSize=12;fontFamily=Helvetica;fontColor=default;rotation=45;" parent="1" vertex="1">
          <mxGeometry x="170" y="420" width="50" height="30" as="geometry" />
        </mxCell>
        <mxCell id="8UOTILgK4hzGg4oHCATh-4" value="" style="group;pointerEvents=0;fontFamily=Helvetica;fontSize=12;fontColor=default;fillColor=none;gradientColor=none;" parent="1" vertex="1" connectable="0">
          <mxGeometry x="250" y="240" width="80" height="80" as="geometry" />
        </mxCell>
        <mxCell id="8UOTILgK4hzGg4oHCATh-5" value="" style="shape=lineEllipse;perimeter=ellipsePerimeter;whiteSpace=wrap;html=1;backgroundOutline=1;pointerEvents=0;fontFamily=Helvetica;fontSize=12;fontColor=default;fillColor=none;gradientColor=none;" parent="8UOTILgK4hzGg4oHCATh-4" vertex="1">
          <mxGeometry width="80" height="80" as="geometry" />
        </mxCell>
        <mxCell id="8UOTILgK4hzGg4oHCATh-6" value="" style="endArrow=none;html=1;rounded=0;exitX=0.5;exitY=1;exitDx=0;exitDy=0;strokeColor=#0A0000;fontFamily=Helvetica;fontSize=12;fontColor=default;" parent="8UOTILgK4hzGg4oHCATh-4" source="8UOTILgK4hzGg4oHCATh-5" edge="1">
          <mxGeometry width="50" height="50" relative="1" as="geometry">
            <mxPoint x="230" y="30" as="sourcePoint" />
            <mxPoint x="40" y="40" as="targetPoint" />
          </mxGeometry>
        </mxCell>
        <mxCell id="8UOTILgK4hzGg4oHCATh-7" value="3" style="text;html=1;align=center;verticalAlign=middle;resizable=0;points=[];autosize=1;strokeColor=none;fillColor=none;pointerEvents=0;fontFamily=Helvetica;fontSize=12;fontColor=default;" parent="8UOTILgK4hzGg4oHCATh-4" vertex="1">
          <mxGeometry x="10" y="40" width="30" height="30" as="geometry" />
        </mxCell>
        <mxCell id="8UOTILgK4hzGg4oHCATh-9" value="1" style="text;html=1;align=center;verticalAlign=middle;resizable=0;points=[];autosize=1;strokeColor=none;fillColor=none;pointerEvents=0;fontFamily=Helvetica;fontSize=12;fontColor=default;" parent="8UOTILgK4hzGg4oHCATh-4" vertex="1">
          <mxGeometry x="25" y="10" width="30" height="30" as="geometry" />
        </mxCell>
        <mxCell id="rfPnMoPrL7BNfZTnJysv-4" value="3" style="text;html=1;align=center;verticalAlign=middle;resizable=0;points=[];autosize=1;strokeColor=none;fillColor=none;fontSize=12;fontFamily=Helvetica;fontColor=default;" parent="8UOTILgK4hzGg4oHCATh-4" vertex="1">
          <mxGeometry x="40" y="40" width="30" height="30" as="geometry" />
        </mxCell>
        <mxCell id="8UOTILgK4hzGg4oHCATh-10" value="" style="group;pointerEvents=0;fontFamily=Helvetica;fontSize=12;fontColor=default;fillColor=none;gradientColor=none;" parent="1" vertex="1" connectable="0">
          <mxGeometry x="250" y="470" width="80" height="80" as="geometry" />
        </mxCell>
        <mxCell id="8UOTILgK4hzGg4oHCATh-11" value="" style="shape=lineEllipse;perimeter=ellipsePerimeter;whiteSpace=wrap;html=1;backgroundOutline=1;pointerEvents=0;fontFamily=Helvetica;fontSize=12;fontColor=default;fillColor=none;gradientColor=none;" parent="8UOTILgK4hzGg4oHCATh-10" vertex="1">
          <mxGeometry width="80" height="80" as="geometry" />
        </mxCell>
        <mxCell id="8UOTILgK4hzGg4oHCATh-12" value="" style="endArrow=none;html=1;rounded=0;exitX=0.5;exitY=1;exitDx=0;exitDy=0;strokeColor=#0A0000;fontFamily=Helvetica;fontSize=12;fontColor=default;" parent="8UOTILgK4hzGg4oHCATh-10" source="8UOTILgK4hzGg4oHCATh-11" edge="1">
          <mxGeometry width="50" height="50" relative="1" as="geometry">
            <mxPoint x="230" y="30" as="sourcePoint" />
            <mxPoint x="40" y="40" as="targetPoint" />
          </mxGeometry>
        </mxCell>
        <mxCell id="8UOTILgK4hzGg4oHCATh-13" value="4" style="text;html=1;align=center;verticalAlign=middle;resizable=0;points=[];autosize=1;strokeColor=none;fillColor=none;pointerEvents=0;fontFamily=Helvetica;fontSize=12;fontColor=default;" parent="8UOTILgK4hzGg4oHCATh-10" vertex="1">
          <mxGeometry x="10" y="40" width="30" height="30" as="geometry" />
        </mxCell>
        <mxCell id="8UOTILgK4hzGg4oHCATh-15" value="2" style="text;html=1;align=center;verticalAlign=middle;resizable=0;points=[];autosize=1;strokeColor=none;fillColor=none;pointerEvents=0;fontFamily=Helvetica;fontSize=12;fontColor=default;" parent="8UOTILgK4hzGg4oHCATh-10" vertex="1">
          <mxGeometry x="25" y="10" width="30" height="30" as="geometry" />
        </mxCell>
        <mxCell id="rfPnMoPrL7BNfZTnJysv-3" value="4" style="text;html=1;align=center;verticalAlign=middle;resizable=0;points=[];autosize=1;strokeColor=none;fillColor=none;fontSize=12;fontFamily=Helvetica;fontColor=default;" parent="8UOTILgK4hzGg4oHCATh-10" vertex="1">
          <mxGeometry x="40" y="40" width="30" height="30" as="geometry" />
        </mxCell>
        <mxCell id="8UOTILgK4hzGg4oHCATh-16" value="" style="endArrow=classic;html=1;rounded=0;strokeColor=#030000;fontFamily=Helvetica;fontSize=12;fontColor=default;exitX=1;exitY=0.5;exitDx=0;exitDy=0;entryX=-0.062;entryY=0.485;entryDx=0;entryDy=0;entryPerimeter=0;" parent="1" source="8UOTILgK4hzGg4oHCATh-5" target="8UOTILgK4hzGg4oHCATh-27" edge="1">
          <mxGeometry width="50" height="50" relative="1" as="geometry">
            <mxPoint x="370" y="440" as="sourcePoint" />
            <mxPoint x="410" y="280" as="targetPoint" />
          </mxGeometry>
        </mxCell>
        <mxCell id="8UOTILgK4hzGg4oHCATh-17" value="C - 5" style="text;html=1;align=center;verticalAlign=middle;resizable=0;points=[];autosize=1;strokeColor=none;fillColor=none;fontSize=12;fontFamily=Helvetica;fontColor=default;rotation=0;" parent="1" vertex="1">
          <mxGeometry x="370" y="290" width="50" height="30" as="geometry" />
        </mxCell>
        <mxCell id="8UOTILgK4hzGg4oHCATh-22" value="F - 3" style="text;html=1;align=center;verticalAlign=middle;resizable=0;points=[];autosize=1;strokeColor=none;fillColor=none;fontSize=12;fontFamily=Helvetica;fontColor=default;" parent="1" vertex="1">
          <mxGeometry x="550" y="180" width="50" height="30" as="geometry" />
        </mxCell>
        <mxCell id="8UOTILgK4hzGg4oHCATh-20" value="" style="endArrow=classic;html=1;rounded=0;strokeColor=#030000;fontFamily=Helvetica;fontSize=12;fontColor=default;exitX=1;exitY=0.5;exitDx=0;exitDy=0;entryX=0;entryY=0.5;entryDx=0;entryDy=0;" parent="1" source="8UOTILgK4hzGg4oHCATh-11" target="jEva6bRTgvlGFpk44n_M-2" edge="1">
          <mxGeometry width="50" height="50" relative="1" as="geometry">
            <mxPoint x="360" y="475" as="sourcePoint" />
            <mxPoint x="430" y="510" as="targetPoint" />
          </mxGeometry>
        </mxCell>
        <mxCell id="8UOTILgK4hzGg4oHCATh-21" value="E - 5" style="text;html=1;align=center;verticalAlign=middle;resizable=0;points=[];autosize=1;strokeColor=none;fillColor=none;fontSize=12;fontFamily=Helvetica;fontColor=default;container=0;rotation=0;" parent="1" vertex="1">
          <mxGeometry x="550" y="480" width="50" height="30" as="geometry" />
        </mxCell>
        <mxCell id="8UOTILgK4hzGg4oHCATh-19" value="D - 4" style="text;html=1;align=center;verticalAlign=middle;resizable=0;points=[];autosize=1;strokeColor=none;fillColor=none;fontSize=12;fontFamily=Helvetica;fontColor=default;rotation=0;" parent="1" vertex="1">
          <mxGeometry x="350" y="480" width="50" height="30" as="geometry" />
        </mxCell>
        <mxCell id="8UOTILgK4hzGg4oHCATh-26" value="" style="group;pointerEvents=0;fontFamily=Helvetica;fontSize=12;fontColor=default;fillColor=none;gradientColor=none;" parent="1" vertex="1" connectable="0">
          <mxGeometry x="435" y="240" width="80" height="80" as="geometry" />
        </mxCell>
        <mxCell id="8UOTILgK4hzGg4oHCATh-27" value="" style="shape=lineEllipse;perimeter=ellipsePerimeter;whiteSpace=wrap;html=1;backgroundOutline=1;pointerEvents=0;fontFamily=Helvetica;fontSize=12;fontColor=default;fillColor=none;gradientColor=none;" parent="8UOTILgK4hzGg4oHCATh-26" vertex="1">
          <mxGeometry width="80" height="80" as="geometry" />
        </mxCell>
        <mxCell id="8UOTILgK4hzGg4oHCATh-28" value="" style="endArrow=none;html=1;rounded=0;exitX=0.5;exitY=1;exitDx=0;exitDy=0;strokeColor=#0A0000;fontFamily=Helvetica;fontSize=12;fontColor=default;" parent="8UOTILgK4hzGg4oHCATh-26" source="8UOTILgK4hzGg4oHCATh-27" edge="1">
          <mxGeometry width="50" height="50" relative="1" as="geometry">
            <mxPoint x="230" y="30" as="sourcePoint" />
            <mxPoint x="40" y="40" as="targetPoint" />
          </mxGeometry>
        </mxCell>
        <mxCell id="8UOTILgK4hzGg4oHCATh-29" value="8" style="text;html=1;align=center;verticalAlign=middle;resizable=0;points=[];autosize=1;strokeColor=none;fillColor=none;pointerEvents=0;fontFamily=Helvetica;fontSize=12;fontColor=default;" parent="8UOTILgK4hzGg4oHCATh-26" vertex="1">
          <mxGeometry x="10" y="40" width="30" height="30" as="geometry" />
        </mxCell>
        <mxCell id="8UOTILgK4hzGg4oHCATh-31" value="3" style="text;html=1;align=center;verticalAlign=middle;resizable=0;points=[];autosize=1;strokeColor=none;fillColor=none;pointerEvents=0;fontFamily=Helvetica;fontSize=12;fontColor=default;" parent="8UOTILgK4hzGg4oHCATh-26" vertex="1">
          <mxGeometry x="25" y="10" width="30" height="30" as="geometry" />
        </mxCell>
        <mxCell id="rfPnMoPrL7BNfZTnJysv-2" value="8" style="text;html=1;align=center;verticalAlign=middle;resizable=0;points=[];autosize=1;strokeColor=none;fillColor=none;fontSize=12;fontFamily=Helvetica;fontColor=default;" parent="8UOTILgK4hzGg4oHCATh-26" vertex="1">
          <mxGeometry x="40" y="40" width="30" height="30" as="geometry" />
        </mxCell>
        <mxCell id="jEva6bRTgvlGFpk44n_M-1" value="" style="group;pointerEvents=0;fontFamily=Helvetica;fontSize=12;fontColor=default;fillColor=none;gradientColor=none;" parent="1" vertex="1" connectable="0">
          <mxGeometry x="440" y="470" width="80" height="80" as="geometry" />
        </mxCell>
        <mxCell id="jEva6bRTgvlGFpk44n_M-2" value="" style="shape=lineEllipse;perimeter=ellipsePerimeter;whiteSpace=wrap;html=1;backgroundOutline=1;pointerEvents=0;fontFamily=Helvetica;fontSize=12;fontColor=default;fillColor=none;gradientColor=none;" parent="jEva6bRTgvlGFpk44n_M-1" vertex="1">
          <mxGeometry width="80" height="80" as="geometry" />
        </mxCell>
        <mxCell id="jEva6bRTgvlGFpk44n_M-3" value="" style="endArrow=none;html=1;rounded=0;exitX=0.5;exitY=1;exitDx=0;exitDy=0;strokeColor=#0A0000;fontFamily=Helvetica;fontSize=12;fontColor=default;" parent="jEva6bRTgvlGFpk44n_M-1" source="jEva6bRTgvlGFpk44n_M-2" edge="1">
          <mxGeometry width="50" height="50" relative="1" as="geometry">
            <mxPoint x="230" y="30" as="sourcePoint" />
            <mxPoint x="40" y="40" as="targetPoint" />
          </mxGeometry>
        </mxCell>
        <mxCell id="jEva6bRTgvlGFpk44n_M-4" value="11" style="text;html=1;align=center;verticalAlign=middle;resizable=0;points=[];autosize=1;strokeColor=none;fillColor=none;pointerEvents=0;fontFamily=Helvetica;fontSize=12;fontColor=default;" parent="jEva6bRTgvlGFpk44n_M-1" vertex="1">
          <mxGeometry x="5" y="40" width="40" height="30" as="geometry" />
        </mxCell>
        <mxCell id="jEva6bRTgvlGFpk44n_M-5" value="11" style="text;html=1;align=center;verticalAlign=middle;resizable=0;points=[];autosize=1;strokeColor=none;fillColor=none;pointerEvents=0;fontFamily=Helvetica;fontSize=12;fontColor=default;" parent="jEva6bRTgvlGFpk44n_M-1" vertex="1">
          <mxGeometry x="35" y="40" width="40" height="30" as="geometry" />
        </mxCell>
        <mxCell id="jEva6bRTgvlGFpk44n_M-6" value="4" style="text;html=1;align=center;verticalAlign=middle;resizable=0;points=[];autosize=1;strokeColor=none;fillColor=none;pointerEvents=0;fontFamily=Helvetica;fontSize=12;fontColor=default;" parent="jEva6bRTgvlGFpk44n_M-1" vertex="1">
          <mxGeometry x="25" y="10" width="30" height="30" as="geometry" />
        </mxCell>
        <mxCell id="xsQOQxXAw8315sLlUcRe-1" value="G - 3" style="text;html=1;align=center;verticalAlign=middle;resizable=0;points=[];autosize=1;strokeColor=none;fillColor=none;fontSize=12;fontFamily=Helvetica;fontColor=default;" vertex="1" parent="1">
          <mxGeometry x="550" y="340" width="50" height="30" as="geometry" />
        </mxCell>
        <mxCell id="lQInJ5UnQ1B9bY31pyqG-1" value="" style="group;pointerEvents=0;fontFamily=Helvetica;fontSize=12;fontColor=default;fillColor=none;gradientColor=none;" vertex="1" connectable="0" parent="1">
          <mxGeometry x="610" y="480" width="80" height="80" as="geometry" />
        </mxCell>
        <mxCell id="lQInJ5UnQ1B9bY31pyqG-2" value="" style="shape=lineEllipse;perimeter=ellipsePerimeter;whiteSpace=wrap;html=1;backgroundOutline=1;pointerEvents=0;fontFamily=Helvetica;fontSize=12;fontColor=default;fillColor=none;gradientColor=none;" vertex="1" parent="lQInJ5UnQ1B9bY31pyqG-1">
          <mxGeometry width="80" height="80" as="geometry" />
        </mxCell>
        <mxCell id="lQInJ5UnQ1B9bY31pyqG-3" value="" style="endArrow=none;html=1;rounded=0;exitX=0.5;exitY=1;exitDx=0;exitDy=0;strokeColor=#0A0000;fontFamily=Helvetica;fontSize=12;fontColor=default;" edge="1" parent="lQInJ5UnQ1B9bY31pyqG-1" source="lQInJ5UnQ1B9bY31pyqG-2">
          <mxGeometry width="50" height="50" relative="1" as="geometry">
            <mxPoint x="230" y="30" as="sourcePoint" />
            <mxPoint x="40" y="40" as="targetPoint" />
          </mxGeometry>
        </mxCell>
        <mxCell id="lQInJ5UnQ1B9bY31pyqG-4" value="11" style="text;html=1;align=center;verticalAlign=middle;resizable=0;points=[];autosize=1;strokeColor=none;fillColor=none;pointerEvents=0;fontFamily=Helvetica;fontSize=12;fontColor=default;" vertex="1" parent="lQInJ5UnQ1B9bY31pyqG-1">
          <mxGeometry x="5" y="40" width="40" height="30" as="geometry" />
        </mxCell>
        <mxCell id="lQInJ5UnQ1B9bY31pyqG-5" value="11" style="text;html=1;align=center;verticalAlign=middle;resizable=0;points=[];autosize=1;strokeColor=none;fillColor=none;pointerEvents=0;fontFamily=Helvetica;fontSize=12;fontColor=default;" vertex="1" parent="lQInJ5UnQ1B9bY31pyqG-1">
          <mxGeometry x="35" y="40" width="40" height="30" as="geometry" />
        </mxCell>
        <mxCell id="lQInJ5UnQ1B9bY31pyqG-6" value="4" style="text;html=1;align=center;verticalAlign=middle;resizable=0;points=[];autosize=1;strokeColor=none;fillColor=none;pointerEvents=0;fontFamily=Helvetica;fontSize=12;fontColor=default;" vertex="1" parent="lQInJ5UnQ1B9bY31pyqG-1">
          <mxGeometry x="25" y="10" width="30" height="30" as="geometry" />
        </mxCell>
        <mxCell id="lQInJ5UnQ1B9bY31pyqG-7" value="" style="group;pointerEvents=0;fontFamily=Helvetica;fontSize=12;fontColor=default;fillColor=none;gradientColor=none;" vertex="1" connectable="0" parent="1">
          <mxGeometry x="620" y="170" width="80" height="80" as="geometry" />
        </mxCell>
        <mxCell id="lQInJ5UnQ1B9bY31pyqG-8" value="" style="shape=lineEllipse;perimeter=ellipsePerimeter;whiteSpace=wrap;html=1;backgroundOutline=1;pointerEvents=0;fontFamily=Helvetica;fontSize=12;fontColor=default;fillColor=none;gradientColor=none;" vertex="1" parent="lQInJ5UnQ1B9bY31pyqG-7">
          <mxGeometry width="80" height="80" as="geometry" />
        </mxCell>
        <mxCell id="lQInJ5UnQ1B9bY31pyqG-9" value="" style="endArrow=none;html=1;rounded=0;exitX=0.5;exitY=1;exitDx=0;exitDy=0;strokeColor=#0A0000;fontFamily=Helvetica;fontSize=12;fontColor=default;" edge="1" parent="lQInJ5UnQ1B9bY31pyqG-7" source="lQInJ5UnQ1B9bY31pyqG-8">
          <mxGeometry width="50" height="50" relative="1" as="geometry">
            <mxPoint x="230" y="30" as="sourcePoint" />
            <mxPoint x="40" y="40" as="targetPoint" />
          </mxGeometry>
        </mxCell>
        <mxCell id="lQInJ5UnQ1B9bY31pyqG-10" value="11" style="text;html=1;align=center;verticalAlign=middle;resizable=0;points=[];autosize=1;strokeColor=none;fillColor=none;pointerEvents=0;fontFamily=Helvetica;fontSize=12;fontColor=default;" vertex="1" parent="lQInJ5UnQ1B9bY31pyqG-7">
          <mxGeometry x="5" y="40" width="40" height="30" as="geometry" />
        </mxCell>
        <mxCell id="lQInJ5UnQ1B9bY31pyqG-11" value="11" style="text;html=1;align=center;verticalAlign=middle;resizable=0;points=[];autosize=1;strokeColor=none;fillColor=none;pointerEvents=0;fontFamily=Helvetica;fontSize=12;fontColor=default;" vertex="1" parent="lQInJ5UnQ1B9bY31pyqG-7">
          <mxGeometry x="35" y="40" width="40" height="30" as="geometry" />
        </mxCell>
        <mxCell id="lQInJ5UnQ1B9bY31pyqG-12" value="4" style="text;html=1;align=center;verticalAlign=middle;resizable=0;points=[];autosize=1;strokeColor=none;fillColor=none;pointerEvents=0;fontFamily=Helvetica;fontSize=12;fontColor=default;" vertex="1" parent="lQInJ5UnQ1B9bY31pyqG-7">
          <mxGeometry x="25" y="10" width="30" height="30" as="geometry" />
        </mxCell>
        <mxCell id="lQInJ5UnQ1B9bY31pyqG-13" value="" style="group;pointerEvents=0;fontFamily=Helvetica;fontSize=12;fontColor=default;fillColor=none;gradientColor=none;" vertex="1" connectable="0" parent="1">
          <mxGeometry x="620" y="335" width="80" height="80" as="geometry" />
        </mxCell>
        <mxCell id="lQInJ5UnQ1B9bY31pyqG-14" value="" style="shape=lineEllipse;perimeter=ellipsePerimeter;whiteSpace=wrap;html=1;backgroundOutline=1;pointerEvents=0;fontFamily=Helvetica;fontSize=12;fontColor=default;fillColor=none;gradientColor=none;" vertex="1" parent="lQInJ5UnQ1B9bY31pyqG-13">
          <mxGeometry width="80" height="80" as="geometry" />
        </mxCell>
        <mxCell id="lQInJ5UnQ1B9bY31pyqG-15" value="" style="endArrow=none;html=1;rounded=0;exitX=0.5;exitY=1;exitDx=0;exitDy=0;strokeColor=#0A0000;fontFamily=Helvetica;fontSize=12;fontColor=default;" edge="1" parent="lQInJ5UnQ1B9bY31pyqG-13" source="lQInJ5UnQ1B9bY31pyqG-14">
          <mxGeometry width="50" height="50" relative="1" as="geometry">
            <mxPoint x="230" y="30" as="sourcePoint" />
            <mxPoint x="40" y="40" as="targetPoint" />
          </mxGeometry>
        </mxCell>
        <mxCell id="lQInJ5UnQ1B9bY31pyqG-16" value="11" style="text;html=1;align=center;verticalAlign=middle;resizable=0;points=[];autosize=1;strokeColor=none;fillColor=none;pointerEvents=0;fontFamily=Helvetica;fontSize=12;fontColor=default;" vertex="1" parent="lQInJ5UnQ1B9bY31pyqG-13">
          <mxGeometry x="5" y="40" width="40" height="30" as="geometry" />
        </mxCell>
        <mxCell id="lQInJ5UnQ1B9bY31pyqG-17" value="11" style="text;html=1;align=center;verticalAlign=middle;resizable=0;points=[];autosize=1;strokeColor=none;fillColor=none;pointerEvents=0;fontFamily=Helvetica;fontSize=12;fontColor=default;" vertex="1" parent="lQInJ5UnQ1B9bY31pyqG-13">
          <mxGeometry x="35" y="40" width="40" height="30" as="geometry" />
        </mxCell>
        <mxCell id="lQInJ5UnQ1B9bY31pyqG-18" value="4" style="text;html=1;align=center;verticalAlign=middle;resizable=0;points=[];autosize=1;strokeColor=none;fillColor=none;pointerEvents=0;fontFamily=Helvetica;fontSize=12;fontColor=default;" vertex="1" parent="lQInJ5UnQ1B9bY31pyqG-13">
          <mxGeometry x="25" y="10" width="30" height="30" as="geometry" />
        </mxCell>
      </root>
    </mxGraphModel>
  </diagram>
</mxfile>
